<?xml version="1.0" encoding="UTF-8" standalone="no"?>
<!-- Generator: Adobe Illustrator 17.1.0, SVG Export Plug-In . SVG Version: 6.00 Build 0)  -->

<svg
   xmlns:dc="http://purl.org/dc/elements/1.1/"
   xmlns:cc="http://creativecommons.org/ns#"
   xmlns:rdf="http://www.w3.org/1999/02/22-rdf-syntax-ns#"
   xmlns:svg="http://www.w3.org/2000/svg"
   xmlns="http://www.w3.org/2000/svg"
   xmlns:sodipodi="http://sodipodi.sourceforge.net/DTD/sodipodi-0.dtd"
   xmlns:inkscape="http://www.inkscape.org/namespaces/inkscape"
   version="1.1"
   id="Layer_1_xA0_Image_1_"
   x="0px"
   y="0px"
   viewBox="0 0 379.57423 170.67484"
   enable-background="new 0 0 424.8 187.2"
   xml:space="preserve"
   inkscape:version="0.91 r13725"
   sodipodi:docname="logo.svg"
   width="379.57422"
   height="170.67484"
   inkscape:export-filename="C:\workspace-mango27\ma-dashboards\Custom Dashboards\web\img\logo.png"
   inkscape:export-xdpi="47.421555"
   inkscape:export-ydpi="47.421555"><metadata
     id="metadata8"><rdf:RDF><cc:Work
         rdf:about=""><dc:format>image/svg+xml</dc:format><dc:type
           rdf:resource="http://purl.org/dc/dcmitype/StillImage" /><dc:title /></cc:Work></rdf:RDF></metadata><defs
     id="defs6" /><sodipodi:namedview
     pagecolor="#ffffff"
     bordercolor="#666666"
     borderopacity="1"
     objecttolerance="10"
     gridtolerance="10"
     guidetolerance="10"
     inkscape:pageopacity="0"
     inkscape:pageshadow="2"
     inkscape:window-width="1920"
     inkscape:window-height="1028"
     id="namedview4"
     showgrid="false"
     inkscape:zoom="1.9375525"
     inkscape:cx="205.12059"
     inkscape:cy="80.991979"
     inkscape:window-x="1912"
     inkscape:window-y="-8"
     inkscape:window-maximized="1"
     inkscape:current-layer="Layer_1_xA0_Image_1_"
     fit-margin-top="0"
     fit-margin-left="0"
     fit-margin-right="0"
     fit-margin-bottom="0" /><g
     style="font-style:normal;font-weight:normal;font-size:90px;line-height:125%;font-family:sans-serif;letter-spacing:0px;word-spacing:0px;fill:#FF8500;fill-opacity:1;stroke:#000000;stroke-width:1px;stroke-linecap:butt;stroke-linejoin:miter;stroke-opacity:1"
     id="text4136"><path
       d="m 89.298828,0.5 0,110.67383 -25.15625,0 0,-74.716799 -10.048828,74.716799 -17.841797,0 -10.595703,-73.007814 0,73.007814 -25.15625048,0 0,-110.67383 37.25585948,0 q 1.640625,9.980469 3.486328,23.515625 L 45.207031,52.179687 51.769531,0.5 l 37.529297,0 z"
       style="font-style:normal;font-variant:normal;font-weight:normal;font-stretch:condensed;font-size:140px;font-family:Impact;-inkscape-font-specification:'Impact Condensed';fill:#FF8500;fill-opacity:1;stroke:#000000;stroke-opacity:1"
       id="path4180" /><path
       d="m 124.70898,55.597656 -25.908199,0 0,-6.083984 q 0,-10.527344 2.392579,-16.201172 2.46094,-5.742188 9.77539,-10.117188 7.31445,-4.375 19.00391,-4.375 14.01367,0 21.12304,4.990235 7.10938,4.921875 8.54492,12.167969 1.43555,7.177734 1.43555,29.667968 l 0,45.527346 -26.86523,0 0,-8.06641 q -2.5293,4.85352 -6.5625,7.31446 -3.96485,2.39257 -9.50196,2.39257 -7.24609,0 -13.33007,-4.0332 -6.015629,-4.10156 -6.015629,-17.841797 l 0,-7.451172 q 0,-10.185547 3.212889,-13.876953 3.21289,-3.691406 15.92774,-8.613281 13.60351,-5.332031 14.56054,-7.177735 0.95703,-1.845703 0.95703,-7.519531 0,-7.109375 -1.09375,-9.228515 -1.02539,-2.1875 -3.48632,-2.1875 -2.80274,0 -3.48633,1.845703 -0.6836,1.777343 -0.6836,9.365234 l 0,9.501953 z m 8.75,12.441406 q -6.63086,4.853516 -7.72461,8.134766 -1.02539,3.28125 -1.02539,9.433594 0,7.041015 0.88868,9.091797 0.95703,2.050781 3.6914,2.050781 2.59766,0 3.34961,-1.572266 0.82031,-1.640625 0.82031,-8.476562 l 0,-18.66211 z"
       style="font-style:normal;font-variant:normal;font-weight:normal;font-stretch:condensed;font-size:140px;font-family:Impact;-inkscape-font-specification:'Impact Condensed';fill:#FF8500;fill-opacity:1;stroke:#000000;stroke-opacity:1"
       id="path4182" /><path
       d="m 198.67383,20.460937 -0.47852,8.339844 q 3.00781,-4.990234 7.31446,-7.451172 4.375,-2.529297 10.04882,-2.529297 7.10938,0 11.6211,3.34961 4.51172,3.349609 5.81054,8.476562 1.29883,5.058594 1.29883,16.953125 l 0,63.574221 -27.61719,0 0,-62.822268 q 0,-9.365234 -0.61523,-11.416015 -0.61523,-2.050781 -3.41797,-2.050781 -2.93945,0 -3.6914,2.392578 -0.75196,2.324218 -0.75196,12.578125 l 0,61.318361 -27.61719,0 0,-90.712893 28.09571,0 z"
       style="font-style:normal;font-variant:normal;font-weight:normal;font-stretch:condensed;font-size:140px;font-family:Impact;-inkscape-font-specification:'Impact Condensed';fill:#FF8500;fill-opacity:1;stroke:#000000;stroke-opacity:1"
       id="path4184" /><path
       d="m 306.61328,20.460937 0,69.863282 q 0,14.150391 -0.68359,18.320311 -0.61524,4.10156 -4.58008,8.68164 -3.96484,4.64844 -11.07422,7.04102 -7.04102,2.46094 -17.77344,2.46094 -13.19336,0 -21.1914,-4.51172 -7.99805,-4.44336 -8.27149,-17.56836 l 26.79688,0 q 0,6.01562 4.375,6.01562 3.14453,0 4.16992,-1.8457 1.02539,-1.8457 1.02539,-7.72461 l 0,-6.835938 q -3.55469,3.21289 -7.51953,4.853515 -3.89649,1.640623 -8.20313,1.640623 -7.45117,0 -12.30468,-3.00781 -4.78516,-3.007813 -6.5625,-7.861328 -1.77735,-4.921875 -1.77735,-13.945313 l 0,-32.949218 q 0,-12.919922 4.64844,-18.59375 4.64844,-5.673829 14.15039,-5.673829 5.19531,0 9.43359,2.119141 4.30664,2.119141 7.65625,6.357422 l 1.98243,-6.835938 25.70312,0 z m -27.68555,24.0625 q 0,-6.220703 -0.75195,-7.929687 -0.68359,-1.708984 -3.14453,-1.708984 -2.39258,0 -3.41797,1.982421 -0.95703,1.914063 -0.95703,7.65625 l 0,30.488282 q 0,6.083984 0.75195,7.929687 0.75196,1.777344 3.14453,1.777344 2.73438,0 3.55469,-2.1875 0.82031,-2.1875 0.82031,-9.912109 l 0,-28.095704 z"
       style="font-style:normal;font-variant:normal;font-weight:normal;font-stretch:condensed;font-size:140px;font-family:Impact;-inkscape-font-specification:'Impact Condensed';fill:#FF8500;fill-opacity:1;stroke:#000000;stroke-opacity:1"
       id="path4186" /><path
       d="m 379.07422,52.316406 0,22.216797 q 0,12.236328 -1.23047,17.978516 -1.23047,5.673828 -5.26367,10.664061 -4.03321,4.92188 -10.39063,7.31445 -6.28906,2.32422 -14.49218,2.32422 -9.16016,0 -15.51758,-1.98242 -6.35742,-2.05078 -9.91211,-6.08398 -3.48633,-4.10157 -4.99024,-9.843753 -1.5039,-5.810547 -1.5039,-17.363281 l 0,-23.242188 q 0,-12.646484 2.73437,-19.755859 2.73438,-7.109375 9.84375,-11.416016 7.10938,-4.306641 18.1836,-4.306641 9.29687,0 15.92773,2.802735 6.69922,2.734375 10.32227,7.177734 3.62304,4.44336 4.92187,9.160156 1.36719,4.716797 1.36719,14.355469 z m -27.61719,-6.835937 q 0,-6.972657 -0.75195,-8.75 -0.75196,-1.845703 -3.21289,-1.845703 -2.46094,0 -3.28125,1.845703 -0.82032,1.777343 -0.82032,8.75 l 0,40.947265 q 0,6.425782 0.82032,8.408203 0.82031,1.914063 3.21289,1.914063 2.46094,0 3.21289,-1.777344 0.82031,-1.777344 0.82031,-7.65625 l 0,-41.835937 z"
       style="font-style:normal;font-variant:normal;font-weight:normal;font-stretch:condensed;font-size:140px;font-family:Impact;-inkscape-font-specification:'Impact Condensed';fill:#FF8500;fill-opacity:1;stroke:#000000;stroke-opacity:1"
       id="path4188" /></g><g
     style="font-style:normal;font-weight:normal;font-size:90px;line-height:125%;font-family:sans-serif;letter-spacing:0px;word-spacing:0px;fill:#000000;fill-opacity:1;stroke:none;stroke-width:1px;stroke-linecap:butt;stroke-linejoin:miter;stroke-opacity:1"
     id="text4140"><path
       d="m 21.19046,133.34514 5.442505,36.56189 -9.733277,0 -0.474243,-6.57166 -3.410034,0 -0.564575,6.57166 -9.8461915,0 4.8327637,-36.56189 13.7530518,0 z m -5.036011,23.50891 q -0.722656,-6.21033 -1.445312,-15.33386 -1.445313,10.47851 -1.806641,15.33386 l 3.251953,0 z"
       style="font-style:normal;font-variant:normal;font-weight:normal;font-stretch:condensed;font-size:46.25px;font-family:Impact;-inkscape-font-specification:'Impact Condensed';letter-spacing:15.44999981px"
       id="path4191" /><path
       d="m 65.320881,133.34514 0,24.43481 q 0,4.15528 -0.270996,5.849 -0.270997,1.67114 -1.603394,3.4552 -1.332397,1.76148 -3.522949,2.68738 -2.167969,0.90332 -5.126343,0.90332 -3.274536,0 -5.78125,-1.08398 -2.506714,-1.08399 -3.748779,-2.82288 -1.242066,-1.73889 -1.467896,-3.65845 -0.22583,-1.94214 -0.22583,-8.12988 l 0,-21.63452 9.507446,0 0,27.41577 q 0,2.3938 0.248414,3.07129 0.270996,0.65491 1.061401,0.65491 0.90332,0 1.151733,-0.72266 0.270996,-0.74524 0.270996,-3.47778 l 0,-26.94153 9.507447,0 z"
       style="font-style:normal;font-variant:normal;font-weight:normal;font-stretch:condensed;font-size:46.25px;font-family:Impact;-inkscape-font-specification:'Impact Condensed';letter-spacing:15.44999981px"
       id="path4193" /><path
       d="m 103.6023,133.34514 0,7.31689 -5.64575,0 0,29.245 -9.507446,0 0,-29.245 -5.623169,0 0,-7.31689 20.776365,0 z"
       style="font-style:normal;font-variant:normal;font-weight:normal;font-stretch:condensed;font-size:46.25px;font-family:Impact;-inkscape-font-specification:'Impact Condensed';letter-spacing:15.44999981px"
       id="path4195" /><path
       d="m 142.94512,154.75383 q 0,5.51025 -0.27099,7.81372 -0.24842,2.28088 -1.62598,4.17786 -1.35498,1.89697 -3.68103,2.91321 -2.32605,1.01623 -5.41992,1.01623 -2.93579,0 -5.28443,-0.94849 -2.32605,-0.97107 -3.74878,-2.89062 -1.42273,-1.91956 -1.69372,-4.17786 -0.271,-2.2583 -0.271,-7.90405 l 0,-6.25549 q 0,-5.51026 0.24842,-7.79114 0.27099,-2.30347 1.62597,-4.20044 1.37757,-1.89697 3.70361,-2.91321 2.32605,-1.01623 5.41993,-1.01623 2.93579,0 5.26184,0.97107 2.34863,0.94848 3.77136,2.86804 1.42273,1.91955 1.69373,4.17785 0.27099,2.2583 0.27099,7.90406 l 0,6.25549 z m -9.50744,-12.01416 q 0,-2.55188 -0.29358,-3.25195 -0.271,-0.72266 -1.15174,-0.72266 -0.74524,0 -1.15173,0.58716 -0.38391,0.56457 -0.38391,3.38745 l 0,17.07275 q 0,3.18421 0.24841,3.92945 0.271,0.74524 1.21948,0.74524 0.97107,0 1.24207,-0.85816 0.271,-0.85815 0.271,-4.08752 l 0,-16.80176 z"
       style="font-style:normal;font-variant:normal;font-weight:normal;font-stretch:condensed;font-size:46.25px;font-family:Impact;-inkscape-font-specification:'Impact Condensed';letter-spacing:15.44999981px"
       id="path4197" /><path
       d="m 191.29857,133.34514 0,36.56189 -8.31055,0 0,-24.68323 -3.3197,24.68323 -5.89417,0 -3.50036,-24.11865 0,24.11865 -8.31055,0 0,-36.56189 12.30774,0 q 0.54199,3.29712 1.15173,7.76855 l 1.30982,9.3042 2.16797,-17.07275 12.39807,0 z"
       style="font-style:normal;font-variant:normal;font-weight:normal;font-stretch:condensed;font-size:46.25px;font-family:Impact;-inkscape-font-specification:'Impact Condensed';letter-spacing:15.44999981px"
       id="path4199" /><path
       d="m 226.98294,133.34514 5.44251,36.56189 -9.73328,0 -0.47424,-6.57166 -3.41004,0 -0.56457,6.57166 -9.84619,0 4.83276,-36.56189 13.75305,0 z m -5.03601,23.50891 q -0.72266,-6.21033 -1.44531,-15.33386 -1.44532,10.47851 -1.80664,15.33386 l 3.25195,0 z"
       style="font-style:normal;font-variant:normal;font-weight:normal;font-stretch:condensed;font-size:46.25px;font-family:Impact;-inkscape-font-specification:'Impact Condensed';letter-spacing:15.44999981px"
       id="path4201" /><path
       d="m 268.65181,133.34514 0,7.31689 -5.64575,0 0,29.245 -9.50745,0 0,-29.245 -5.62317,0 0,-7.31689 20.77637,0 z"
       style="font-style:normal;font-variant:normal;font-weight:normal;font-stretch:condensed;font-size:46.25px;font-family:Impact;-inkscape-font-specification:'Impact Condensed';letter-spacing:15.44999981px"
       id="path4203" /><path
       d="m 295.77722,133.34514 0,36.56189 -9.50744,0 0,-36.56189 9.50744,0 z"
       style="font-style:normal;font-variant:normal;font-weight:normal;font-stretch:condensed;font-size:46.25px;font-family:Impact;-inkscape-font-specification:'Impact Condensed';letter-spacing:15.44999981px"
       id="path4205" /><path
       d="m 336.72345,154.75383 q 0,5.51025 -0.271,7.81372 -0.24841,2.28088 -1.62597,4.17786 -1.35498,1.89697 -3.68103,2.91321 -2.32605,1.01623 -5.41993,1.01623 -2.93579,0 -5.28442,-0.94849 -2.32605,-0.97107 -3.74878,-2.89062 -1.42273,-1.91956 -1.69372,-4.17786 -0.271,-2.2583 -0.271,-7.90405 l 0,-6.25549 q 0,-5.51026 0.24841,-7.79114 0.271,-2.30347 1.62598,-4.20044 1.37756,-1.89697 3.70361,-2.91321 2.32605,-1.01623 5.41992,-1.01623 2.9358,0 5.26185,0.97107 2.34863,0.94848 3.77136,2.86804 1.42273,1.91955 1.69372,4.17785 0.271,2.2583 0.271,7.90406 l 0,6.25549 z M 327.216,142.73967 q 0,-2.55188 -0.29358,-3.25195 -0.27099,-0.72266 -1.15173,-0.72266 -0.74524,0 -1.15173,0.58716 -0.38391,0.56457 -0.38391,3.38745 l 0,17.07275 q 0,3.18421 0.24841,3.92945 0.271,0.74524 1.21948,0.74524 0.97107,0 1.24207,-0.85816 0.27099,-0.85815 0.27099,-4.08752 l 0,-16.80176 z"
       style="font-style:normal;font-variant:normal;font-weight:normal;font-stretch:condensed;font-size:46.25px;font-family:Impact;-inkscape-font-specification:'Impact Condensed';letter-spacing:15.44999981px"
       id="path4207" /><path
       d="m 376.96957,133.34514 0,36.56189 -8.33313,0 -4.94567,-16.6211 0,16.6211 -7.94922,0 0,-36.56189 7.94922,0 5.32958,16.46301 0,-16.46301 7.94922,0 z"
       style="font-style:normal;font-variant:normal;font-weight:normal;font-stretch:condensed;font-size:46.25px;font-family:Impact;-inkscape-font-specification:'Impact Condensed';letter-spacing:15.44999981px"
       id="path4209" /></g></svg>