<?xml version="1.0" encoding="UTF-8" standalone="no"?>
<!-- Created with Inkscape (http://www.inkscape.org/) -->

<svg
   xmlns:dc="http://purl.org/dc/elements/1.1/"
   xmlns:cc="http://creativecommons.org/ns#"
   xmlns:rdf="http://www.w3.org/1999/02/22-rdf-syntax-ns#"
   xmlns:svg="http://www.w3.org/2000/svg"
   xmlns="http://www.w3.org/2000/svg"
   xmlns:sodipodi="http://sodipodi.sourceforge.net/DTD/sodipodi-0.dtd"
   xmlns:inkscape="http://www.inkscape.org/namespaces/inkscape"
   width="300"
   height="200"
   viewBox="0 0 300 200"
   id="svg2"
   version="1.1"
   inkscape:version="0.91 r13725"
   sodipodi:docname="status-panel.svg">
  <defs
     id="defs4">
    <marker
       inkscape:stockid="EmptyTriangleInL"
       orient="auto"
       refY="0.0"
       refX="0.0"
       id="EmptyTriangleInL"
       style="overflow:visible"
       inkscape:isstock="true">
      <path
         id="path4293"
         d="M 5.77,0.0 L -2.88,5.0 L -2.88,-5.0 L 5.77,0.0 z "
         style="fill-rule:evenodd;fill:#ffffff;stroke:#005c82;stroke-width:1pt;stroke-opacity:1"
         transform="scale(-0.8) translate(-6,0)" />
    </marker>
    <marker
       inkscape:stockid="SemiCircleIn"
       orient="auto"
       refY="0.0"
       refX="0.0"
       id="SemiCircleIn"
       style="overflow:visible"
       inkscape:isstock="true">
      <path
         id="path4320"
         d="M -0.37450702,-0.045692580 C -0.37450702,2.7143074 1.8654930,4.9543074 4.6254930,4.9543074 L 4.6254930,-5.0456926 C 1.8654930,-5.0456926 -0.37450702,-2.8056926 -0.37450702,-0.045692580 z "
         style="fill-rule:evenodd;stroke:#005c82;stroke-width:1pt;stroke-opacity:1;fill:#005c82;fill-opacity:1"
         transform="scale(0.6)" />
    </marker>
    <marker
       inkscape:stockid="EmptyDiamondMstart"
       orient="auto"
       refY="0.0"
       refX="0.0"
       id="EmptyDiamondMstart"
       style="overflow:visible"
       inkscape:isstock="true">
      <path
         id="path4260"
         d="M 0,-7.0710768 L -7.0710894,0 L 0,7.0710589 L 7.0710462,0 L 0,-7.0710768 z "
         style="fill-rule:evenodd;fill:#ffffff;stroke:#005c82;stroke-width:1pt;stroke-opacity:1"
         transform="scale(0.4) translate(6.5,0)" />
    </marker>
    <marker
       inkscape:stockid="EmptyTriangleOutL"
       orient="auto"
       refY="0.0"
       refX="0.0"
       id="EmptyTriangleOutL"
       style="overflow:visible"
       inkscape:isstock="true">
      <path
         id="path4302"
         d="M 5.77,0.0 L -2.88,5.0 L -2.88,-5.0 L 5.77,0.0 z "
         style="fill-rule:evenodd;fill:#ffffff;stroke:#005c82;stroke-width:1pt;stroke-opacity:1"
         transform="scale(0.8) translate(-6,0)" />
    </marker>
    <marker
       inkscape:stockid="Arrow2Mstart"
       orient="auto"
       refY="0.0"
       refX="0.0"
       id="Arrow2Mstart"
       style="overflow:visible"
       inkscape:isstock="true">
      <path
         id="path4166"
         style="fill-rule:evenodd;stroke-width:0.625;stroke-linejoin:round;stroke:#005c82;stroke-opacity:1;fill:#005c82;fill-opacity:1"
         d="M 8.7185878,4.0337352 L -2.2072895,0.016013256 L 8.7185884,-4.0017078 C 6.9730900,-1.6296469 6.9831476,1.6157441 8.7185878,4.0337352 z "
         transform="scale(0.6) translate(0,0)" />
    </marker>
    <marker
       inkscape:stockid="Arrow1Sstart"
       orient="auto"
       refY="0.0"
       refX="0.0"
       id="Arrow1Sstart"
       style="overflow:visible"
       inkscape:isstock="true">
      <path
         id="path4154"
         d="M 0.0,0.0 L 5.0,-5.0 L -12.5,0.0 L 5.0,5.0 L 0.0,0.0 z "
         style="fill-rule:evenodd;stroke:#005c82;stroke-width:1pt;stroke-opacity:1;fill:#005c82;fill-opacity:1"
         transform="scale(0.2) translate(6,0)" />
    </marker>
    <marker
       inkscape:stockid="Arrow1Lstart"
       orient="auto"
       refY="0.0"
       refX="0.0"
       id="Arrow1Lstart"
       style="overflow:visible"
       inkscape:isstock="true">
      <path
         id="path4142"
         d="M 0.0,0.0 L 5.0,-5.0 L -12.5,0.0 L 5.0,5.0 L 0.0,0.0 z "
         style="fill-rule:evenodd;stroke:#005c82;stroke-width:1pt;stroke-opacity:1;fill:#005c82;fill-opacity:1"
         transform="scale(0.8) translate(12.5,0)" />
    </marker>
  </defs>
  <sodipodi:namedview
     id="base"
     pagecolor="#ffffff"
     bordercolor="#666666"
     borderopacity="1.0"
     inkscape:pageopacity="0.0"
     inkscape:pageshadow="2"
     inkscape:zoom="1.0076756"
     inkscape:cx="89.250929"
     inkscape:cy="278.63333"
     inkscape:document-units="px"
     inkscape:current-layer="layer2"
     showgrid="false"
     units="px"
     inkscape:window-width="1440"
     inkscape:window-height="852"
     inkscape:window-x="0"
     inkscape:window-y="0"
     inkscape:window-maximized="1" />
  <metadata
     id="metadata7">
    <rdf:RDF>
      <cc:Work
         rdf:about="">
        <dc:format>image/svg+xml</dc:format>
        <dc:type
           rdf:resource="http://purl.org/dc/dcmitype/StillImage" />
        <dc:title></dc:title>
      </cc:Work>
    </rdf:RDF>
  </metadata>
  <g
     inkscape:label="Bg"
     inkscape:groupmode="layer"
     id="layer1"
     transform="translate(0,-852.36216)"
     style="opacity:0.79000005"
     sodipodi:insensitive="true">
    <rect
       style="opacity:0.98699999;fill:#d2f0ff;fill-opacity:1;stroke:#005c82;stroke-width:2.45701146;stroke-linejoin:miter;stroke-miterlimit:0;stroke-dasharray:none;stroke-opacity:1"
       id="rect4136"
       width="297.543"
       height="197.54298"
       x="1.2285057"
       y="853.59064" />
  </g>
  <g
     inkscape:groupmode="layer"
     id="layer2"
     inkscape:label="Elements"
     transform="translate(0,-200)">
    <ellipse
       style="opacity:0.98699999;fill:#d2f0ff;fill-opacity:1;stroke:#005c82;stroke-width:7.5;stroke-linejoin:miter;stroke-miterlimit:0;stroke-dasharray:none;stroke-opacity:1"
       id="indicator"
       cx="150"
       cy="299.99997"
       rx="56.565823"
       ry="57.558205"
       inkscape:label="#path4211" />
    <path
       sodipodi:type="spiral"
       style="opacity:0.98699999;fill:none;fill-rule:evenodd;stroke:#005c82;stroke-width:3;stroke-linecap:round;stroke-linejoin:miter;stroke-miterlimit:4;stroke-dasharray:3, 12;stroke-dashoffset:0;stroke-opacity:1"
       id="spinner"
       sodipodi:cx="147.16652"
       sodipodi:cy="303.44556"
       sodipodi:expansion="1"
       sodipodi:revolution="3"
       sodipodi:radius="41.455006"
       sodipodi:argument="-19.042257"
       sodipodi:t0="0"
       d="m 147.16652,303.44556 c 2.04002,-0.39806 1.54304,2.55351 0.66159,3.39064 -2.38867,2.26856 -6.09409,0.39637 -7.44287,-2.06746 -2.41266,-4.40721 0.50128,-9.66996 4.79651,-11.49511 6.30341,-2.67847 13.30559,1.39442 15.54733,7.52556 2.98789,8.17185 -2.28375,16.96392 -10.25461,19.59957 -10.03051,3.31671 -20.6334,-3.17074 -23.6518,-12.98366 -3.65568,-11.88476 4.0563,-24.30926 15.71271,-27.70403 13.73668,-4.00062 27.9891,4.94096 31.75627,18.44176 4.34934,15.58721 -5.82501,31.67159 -21.17081,35.8085 -17.43688,4.70061 -35.35595,-6.70864 -39.86073,-23.89987 -5.05369,-19.28595 7.59197,-39.04165 26.62891,-43.91296 21.13462,-5.40806 42.72839,8.47508 47.96519,29.35797"
       inkscape:label="#path4136" />
  </g>
</svg>
